# xmcd CD database file
#
# Track frame offsets:
#	150
#	24438
#	39729
#	57412
#	70741
#	106762
#	134650
#	179397
#	208046
#	253967
#	286258
#
# Disc length: 4173 seconds
#
# Revision: 0
# Processed by: cddbd v1.5.2PL0 Copyright (c) Steve Scherf et al.
# Submitted via: CDex 1.70beta2
#
DISCID=a6104b0b
DTITLE=Oscar Peterson - Strike Up The Band - CD 4
DYEAR=1900
DGENRE=Jazz
TTITLE0=I Can´t Give You Anything But Love
TTITLE1=These Foolish Things Remind Me Of You
TTITLE2=You Go to My Head
TTITLE3=Angel Eyes
TTITLE4=Always
TTITLE5=Soft Winds
TTITLE6=Stardust
TTITLE7=Hallelujah
TTITLE8=Tenderly
TTITLE9=Sweethearts On Parade
TTITLE10=Date With Oscar
EXTD=
EXTT0=
EXTT1=
EXTT2=
EXTT3=
EXTT4=
EXTT5=
EXTT6=
EXTT7=
EXTT8=
EXTT9=
EXTT10=
PLAYORDER=
